<svg width="24" height="24" viewBox="0 0 24 24" fill="none" xmlns="http://www.w3.org/2000/svg">
<path d="M20.25 12.2739C20.25 12.8261 19.8023 13.2739 19.25 13.2739L6.67187 13.2739L11.0059 17.5893C11.3972 17.979 11.3985 18.613 11.0088 19.0043C10.6191 19.3956 9.9851 19.3969 9.59375 19.0072L3.54395 12.9828C3.46117 12.9004 3.39561 12.8043 3.34668 12.7006C3.33965 12.6857 3.33248 12.6709 3.32617 12.6557C3.29611 12.5829 3.2759 12.5065 3.26367 12.4281C3.25586 12.3778 3.25 12.3264 3.25 12.2739C3.25 12.2148 3.25678 12.1572 3.2666 12.101C3.26814 12.0922 3.26873 12.0833 3.27051 12.0746C3.27271 12.0638 3.27577 12.0531 3.27832 12.0424C3.28355 12.0205 3.28823 11.9985 3.29492 11.977C3.31127 11.9243 3.333 11.8741 3.35742 11.8256C3.4052 11.7306 3.46717 11.6423 3.54395 11.5658L9.59375 5.54045C9.98508 5.15074 10.6191 5.15205 11.0088 5.54338C11.3983 5.93458 11.3968 6.56772 11.0059 6.95745L6.67187 11.2739L19.25 11.2739C19.8023 11.2739 20.25 11.7216 20.25 12.2739Z" fill="#0E0E17"/>
</svg>
